<?xml version="1.0" encoding="UTF-8" standalone="no"?>
<!DOCTYPE svg PUBLIC "-//W3C//DTD SVG 1.1//EN"
 "http://www.w3.org/Graphics/SVG/1.1/DTD/svg11.dtd">
<!-- Generated by graphviz version 2.40.1 (20161225.0304)
 -->
<!-- Title: %3 Pages: 1 -->
<svg width="834pt" height="476pt"
 viewBox="0.00 0.00 834.26 476.00" xmlns="http://www.w3.org/2000/svg" xmlns:xlink="http://www.w3.org/1999/xlink">
<g id="graph0" class="graph" transform="scale(1 1) rotate(0) translate(4 472)">
<title>%3</title>
<polygon fill="#ffffff" stroke="transparent" points="-4,4 -4,-472 830.2641,-472 830.2641,4 -4,4"/>
<!-- [root] aws_eip.eip_dev_main (expand) -->
<g id="node1" class="node">
<title>[root] aws_eip.eip_dev_main (expand)</title>
<polygon fill="none" stroke="#000000" points="448.7843,-324 306.7843,-324 306.7843,-288 448.7843,-288 448.7843,-324"/>
<text text-anchor="middle" x="377.7843" y="-302.3" font-family="Times,serif" font-size="14.00" fill="#000000">aws_eip.eip_dev_main</text>
</g>
<!-- [root] aws_internet_gateway.gw_dev_main (expand) -->
<g id="node3" class="node">
<title>[root] aws_internet_gateway.gw_dev_main (expand)</title>
<polygon fill="none" stroke="#000000" points="729.7843,-180 511.7843,-180 511.7843,-144 729.7843,-144 729.7843,-180"/>
<text text-anchor="middle" x="620.7843" y="-158.3" font-family="Times,serif" font-size="14.00" fill="#000000">aws_internet_gateway.gw_dev_main</text>
</g>
<!-- [root] aws_eip.eip_dev_main (expand)&#45;&gt;[root] aws_internet_gateway.gw_dev_main (expand) -->
<g id="edge1" class="edge">
<title>[root] aws_eip.eip_dev_main (expand)&#45;&gt;[root] aws_internet_gateway.gw_dev_main (expand)</title>
<path fill="none" stroke="#000000" d="M405.8605,-287.9719C434.8789,-269.4814 481.6161,-240.0968 522.7843,-216 540.6077,-205.5675 560.5286,-194.4871 577.7312,-185.096"/>
<polygon fill="#000000" stroke="#000000" points="579.8651,-187.9197 586.9779,-180.0674 576.5208,-181.7702 579.8651,-187.9197"/>
</g>
<!-- [root] aws_network_interface.nic&#45;webserver_dev_main (expand) -->
<g id="node4" class="node">
<title>[root] aws_network_interface.nic&#45;webserver_dev_main (expand)</title>
<polygon fill="none" stroke="#000000" points="327.7843,-252 43.7843,-252 43.7843,-216 327.7843,-216 327.7843,-252"/>
<text text-anchor="middle" x="185.7843" y="-230.3" font-family="Times,serif" font-size="14.00" fill="#000000">aws_network_interface.nic&#45;webserver_dev_main</text>
</g>
<!-- [root] aws_eip.eip_dev_main (expand)&#45;&gt;[root] aws_network_interface.nic&#45;webserver_dev_main (expand) -->
<g id="edge2" class="edge">
<title>[root] aws_eip.eip_dev_main (expand)&#45;&gt;[root] aws_network_interface.nic&#45;webserver_dev_main (expand)</title>
<path fill="none" stroke="#000000" d="M329.3346,-287.8314C303.1992,-278.0306 270.7734,-265.8709 243.3561,-255.5894"/>
<polygon fill="#000000" stroke="#000000" points="244.4779,-252.2721 233.8856,-252.038 242.02,-258.8264 244.4779,-252.2721"/>
</g>
<!-- [root] aws_instance.aws&#45;ubuntu&#45;instance_dev_main (expand) -->
<g id="node2" class="node">
<title>[root] aws_instance.aws&#45;ubuntu&#45;instance_dev_main (expand)</title>
<polygon fill="none" stroke="#000000" points="288.2843,-324 23.2843,-324 23.2843,-288 288.2843,-288 288.2843,-324"/>
<text text-anchor="middle" x="155.7843" y="-302.3" font-family="Times,serif" font-size="14.00" fill="#000000">aws_instance.aws&#45;ubuntu&#45;instance_dev_main</text>
</g>
<!-- [root] aws_instance.aws&#45;ubuntu&#45;instance_dev_main (expand)&#45;&gt;[root] aws_network_interface.nic&#45;webserver_dev_main (expand) -->
<g id="edge3" class="edge">
<title>[root] aws_instance.aws&#45;ubuntu&#45;instance_dev_main (expand)&#45;&gt;[root] aws_network_interface.nic&#45;webserver_dev_main (expand)</title>
<path fill="none" stroke="#000000" d="M163.3546,-287.8314C166.6336,-279.9617 170.5463,-270.5712 174.1788,-261.8533"/>
<polygon fill="#000000" stroke="#000000" points="177.4967,-262.9902 178.1121,-252.4133 171.0351,-260.2979 177.4967,-262.9902"/>
</g>
<!-- [root] aws_vpc.vpc_dev_main (expand) -->
<g id="node9" class="node">
<title>[root] aws_vpc.vpc_dev_main (expand)</title>
<polygon fill="none" stroke="#000000" points="477.7843,-108 329.7843,-108 329.7843,-72 477.7843,-72 477.7843,-108"/>
<text text-anchor="middle" x="403.7843" y="-86.3" font-family="Times,serif" font-size="14.00" fill="#000000">aws_vpc.vpc_dev_main</text>
</g>
<!-- [root] aws_internet_gateway.gw_dev_main (expand)&#45;&gt;[root] aws_vpc.vpc_dev_main (expand) -->
<g id="edge4" class="edge">
<title>[root] aws_internet_gateway.gw_dev_main (expand)&#45;&gt;[root] aws_vpc.vpc_dev_main (expand)</title>
<path fill="none" stroke="#000000" d="M566.3061,-143.9243C536.383,-133.9959 499.1,-121.6255 467.7939,-111.2382"/>
<polygon fill="#000000" stroke="#000000" points="468.8783,-107.9104 458.2849,-108.0831 466.6739,-114.5543 468.8783,-107.9104"/>
</g>
<!-- [root] aws_security_group.sg&#45;allow&#45;web_dev_main (expand) -->
<g id="node7" class="node">
<title>[root] aws_security_group.sg&#45;allow&#45;web_dev_main (expand)</title>
<polygon fill="none" stroke="#000000" points="296.2843,-180 33.2843,-180 33.2843,-144 296.2843,-144 296.2843,-180"/>
<text text-anchor="middle" x="164.7843" y="-158.3" font-family="Times,serif" font-size="14.00" fill="#000000">aws_security_group.sg&#45;allow&#45;web_dev_main</text>
</g>
<!-- [root] aws_network_interface.nic&#45;webserver_dev_main (expand)&#45;&gt;[root] aws_security_group.sg&#45;allow&#45;web_dev_main (expand) -->
<g id="edge5" class="edge">
<title>[root] aws_network_interface.nic&#45;webserver_dev_main (expand)&#45;&gt;[root] aws_security_group.sg&#45;allow&#45;web_dev_main (expand)</title>
<path fill="none" stroke="#000000" d="M180.4851,-215.8314C178.2145,-208.0463 175.5098,-198.7729 172.9903,-190.1347"/>
<polygon fill="#000000" stroke="#000000" points="176.3149,-189.0332 170.1548,-180.4133 169.5949,-190.9933 176.3149,-189.0332"/>
</g>
<!-- [root] aws_subnet.subnet_dev_main (expand) -->
<g id="node8" class="node">
<title>[root] aws_subnet.subnet_dev_main (expand)</title>
<polygon fill="none" stroke="#000000" points="493.2843,-180 314.2843,-180 314.2843,-144 493.2843,-144 493.2843,-180"/>
<text text-anchor="middle" x="403.7843" y="-158.3" font-family="Times,serif" font-size="14.00" fill="#000000">aws_subnet.subnet_dev_main</text>
</g>
<!-- [root] aws_network_interface.nic&#45;webserver_dev_main (expand)&#45;&gt;[root] aws_subnet.subnet_dev_main (expand) -->
<g id="edge6" class="edge">
<title>[root] aws_network_interface.nic&#45;webserver_dev_main (expand)&#45;&gt;[root] aws_subnet.subnet_dev_main (expand)</title>
<path fill="none" stroke="#000000" d="M240.5135,-215.9243C270.5745,-205.9959 308.0293,-193.6255 339.4797,-183.2382"/>
<polygon fill="#000000" stroke="#000000" points="340.6347,-186.5428 349.0326,-180.0831 338.4394,-179.8959 340.6347,-186.5428"/>
</g>
<!-- [root] aws_route_table.rt_dev_main (expand) -->
<g id="node5" class="node">
<title>[root] aws_route_table.rt_dev_main (expand)</title>
<polygon fill="none" stroke="#000000" points="709.7843,-252 531.7843,-252 531.7843,-216 709.7843,-216 709.7843,-252"/>
<text text-anchor="middle" x="620.7843" y="-230.3" font-family="Times,serif" font-size="14.00" fill="#000000">aws_route_table.rt_dev_main</text>
</g>
<!-- [root] aws_route_table.rt_dev_main (expand)&#45;&gt;[root] aws_internet_gateway.gw_dev_main (expand) -->
<g id="edge7" class="edge">
<title>[root] aws_route_table.rt_dev_main (expand)&#45;&gt;[root] aws_internet_gateway.gw_dev_main (expand)</title>
<path fill="none" stroke="#000000" d="M620.7843,-215.8314C620.7843,-208.131 620.7843,-198.9743 620.7843,-190.4166"/>
<polygon fill="#000000" stroke="#000000" points="624.2844,-190.4132 620.7843,-180.4133 617.2844,-190.4133 624.2844,-190.4132"/>
</g>
<!-- [root] aws_route_table_association.rt&#45;association_dev_main (expand) -->
<g id="node6" class="node">
<title>[root] aws_route_table_association.rt&#45;association_dev_main (expand)</title>
<polygon fill="none" stroke="#000000" points="775.2843,-324 466.2843,-324 466.2843,-288 775.2843,-288 775.2843,-324"/>
<text text-anchor="middle" x="620.7843" y="-302.3" font-family="Times,serif" font-size="14.00" fill="#000000">aws_route_table_association.rt&#45;association_dev_main</text>
</g>
<!-- [root] aws_route_table_association.rt&#45;association_dev_main (expand)&#45;&gt;[root] aws_route_table.rt_dev_main (expand) -->
<g id="edge8" class="edge">
<title>[root] aws_route_table_association.rt&#45;association_dev_main (expand)&#45;&gt;[root] aws_route_table.rt_dev_main (expand)</title>
<path fill="none" stroke="#000000" d="M620.7843,-287.8314C620.7843,-280.131 620.7843,-270.9743 620.7843,-262.4166"/>
<polygon fill="#000000" stroke="#000000" points="624.2844,-262.4132 620.7843,-252.4133 617.2844,-262.4133 624.2844,-262.4132"/>
</g>
<!-- [root] aws_route_table_association.rt&#45;association_dev_main (expand)&#45;&gt;[root] aws_subnet.subnet_dev_main (expand) -->
<g id="edge9" class="edge">
<title>[root] aws_route_table_association.rt&#45;association_dev_main (expand)&#45;&gt;[root] aws_subnet.subnet_dev_main (expand)</title>
<path fill="none" stroke="#000000" d="M585.1451,-287.9501C566.2346,-277.9797 542.8283,-265.0058 522.7843,-252 491.2952,-231.5679 457.3244,-205.4286 433.7717,-186.5906"/>
<polygon fill="#000000" stroke="#000000" points="435.8814,-183.7959 425.8964,-180.2532 431.4929,-189.2494 435.8814,-183.7959"/>
</g>
<!-- [root] aws_security_group.sg&#45;allow&#45;web_dev_main (expand)&#45;&gt;[root] aws_vpc.vpc_dev_main (expand) -->
<g id="edge10" class="edge">
<title>[root] aws_security_group.sg&#45;allow&#45;web_dev_main (expand)&#45;&gt;[root] aws_vpc.vpc_dev_main (expand)</title>
<path fill="none" stroke="#000000" d="M224.7856,-143.9243C258.0265,-133.9103 299.5138,-121.412 334.1755,-110.97"/>
<polygon fill="#000000" stroke="#000000" points="335.193,-114.3189 343.7583,-108.0831 333.1738,-107.6165 335.193,-114.3189"/>
</g>
<!-- [root] aws_subnet.subnet_dev_main (expand)&#45;&gt;[root] aws_vpc.vpc_dev_main (expand) -->
<g id="edge11" class="edge">
<title>[root] aws_subnet.subnet_dev_main (expand)&#45;&gt;[root] aws_vpc.vpc_dev_main (expand)</title>
<path fill="none" stroke="#000000" d="M403.7843,-143.8314C403.7843,-136.131 403.7843,-126.9743 403.7843,-118.4166"/>
<polygon fill="#000000" stroke="#000000" points="407.2844,-118.4132 403.7843,-108.4133 400.2844,-118.4133 407.2844,-118.4132"/>
</g>
<!-- [root] provider[&quot;registry.terraform.io/hashicorp/aws&quot;] -->
<g id="node10" class="node">
<title>[root] provider[&quot;registry.terraform.io/hashicorp/aws&quot;]</title>
<polygon fill="none" stroke="#000000" points="403.7843,-36 151.2476,-18 403.7843,0 656.321,-18 403.7843,-36"/>
<text text-anchor="middle" x="403.7843" y="-14.3" font-family="Times,serif" font-size="14.00" fill="#000000">provider[&quot;registry.terraform.io/hashicorp/aws&quot;]</text>
</g>
<!-- [root] aws_vpc.vpc_dev_main (expand)&#45;&gt;[root] provider[&quot;registry.terraform.io/hashicorp/aws&quot;] -->
<g id="edge12" class="edge">
<title>[root] aws_vpc.vpc_dev_main (expand)&#45;&gt;[root] provider[&quot;registry.terraform.io/hashicorp/aws&quot;]</title>
<path fill="none" stroke="#000000" d="M403.7843,-71.8314C403.7843,-64.131 403.7843,-54.9743 403.7843,-46.4166"/>
<polygon fill="#000000" stroke="#000000" points="407.2844,-46.4132 403.7843,-36.4133 400.2844,-46.4133 407.2844,-46.4132"/>
</g>
<!-- [root] meta.count&#45;boundary (EachMode fixup) -->
<g id="node11" class="node">
<title>[root] meta.count&#45;boundary (EachMode fixup)</title>
<ellipse fill="none" stroke="#000000" cx="176.7843" cy="-378" rx="176.5689" ry="18"/>
<text text-anchor="middle" x="176.7843" y="-374.3" font-family="Times,serif" font-size="14.00" fill="#000000">[root] meta.count&#45;boundary (EachMode fixup)</text>
</g>
<!-- [root] meta.count&#45;boundary (EachMode fixup)&#45;&gt;[root] aws_eip.eip_dev_main (expand) -->
<g id="edge13" class="edge">
<title>[root] meta.count&#45;boundary (EachMode fixup)&#45;&gt;[root] aws_eip.eip_dev_main (expand)</title>
<path fill="none" stroke="#000000" d="M225.1846,-360.6626C252.9459,-350.7183 288.0381,-338.1479 317.5692,-327.5696"/>
<polygon fill="#000000" stroke="#000000" points="319.1184,-330.7325 327.3523,-324.0652 316.7578,-324.1425 319.1184,-330.7325"/>
</g>
<!-- [root] meta.count&#45;boundary (EachMode fixup)&#45;&gt;[root] aws_instance.aws&#45;ubuntu&#45;instance_dev_main (expand) -->
<g id="edge14" class="edge">
<title>[root] meta.count&#45;boundary (EachMode fixup)&#45;&gt;[root] aws_instance.aws&#45;ubuntu&#45;instance_dev_main (expand)</title>
<path fill="none" stroke="#000000" d="M171.4851,-359.8314C169.2145,-352.0463 166.5098,-342.7729 163.9903,-334.1347"/>
<polygon fill="#000000" stroke="#000000" points="167.3149,-333.0332 161.1548,-324.4133 160.5949,-334.9933 167.3149,-333.0332"/>
</g>
<!-- [root] meta.count&#45;boundary (EachMode fixup)&#45;&gt;[root] aws_route_table_association.rt&#45;association_dev_main (expand) -->
<g id="edge15" class="edge">
<title>[root] meta.count&#45;boundary (EachMode fixup)&#45;&gt;[root] aws_route_table_association.rt&#45;association_dev_main (expand)</title>
<path fill="none" stroke="#000000" d="M270.9453,-362.7307C337.5602,-351.9282 427.471,-337.3481 499.4614,-325.674"/>
<polygon fill="#000000" stroke="#000000" points="500.1856,-329.1024 509.4964,-324.0467 499.065,-322.1926 500.1856,-329.1024"/>
</g>
<!-- [root] provider[&quot;registry.terraform.io/hashicorp/aws&quot;] (close) -->
<g id="node12" class="node">
<title>[root] provider[&quot;registry.terraform.io/hashicorp/aws&quot;] (close)</title>
<ellipse fill="none" stroke="#000000" cx="598.7843" cy="-378" rx="227.4596" ry="18"/>
<text text-anchor="middle" x="598.7843" y="-374.3" font-family="Times,serif" font-size="14.00" fill="#000000">[root] provider[&quot;registry.terraform.io/hashicorp/aws&quot;] (close)</text>
</g>
<!-- [root] provider[&quot;registry.terraform.io/hashicorp/aws&quot;] (close)&#45;&gt;[root] aws_eip.eip_dev_main (expand) -->
<g id="edge16" class="edge">
<title>[root] provider[&quot;registry.terraform.io/hashicorp/aws&quot;] (close)&#45;&gt;[root] aws_eip.eip_dev_main (expand)</title>
<path fill="none" stroke="#000000" d="M545.0042,-360.4789C514.3202,-350.4823 475.6307,-337.8776 443.1966,-327.3108"/>
<polygon fill="#000000" stroke="#000000" points="443.9398,-323.8719 433.3474,-324.102 441.7714,-330.5276 443.9398,-323.8719"/>
</g>
<!-- [root] provider[&quot;registry.terraform.io/hashicorp/aws&quot;] (close)&#45;&gt;[root] aws_instance.aws&#45;ubuntu&#45;instance_dev_main (expand) -->
<g id="edge17" class="edge">
<title>[root] provider[&quot;registry.terraform.io/hashicorp/aws&quot;] (close)&#45;&gt;[root] aws_instance.aws&#45;ubuntu&#45;instance_dev_main (expand)</title>
<path fill="none" stroke="#000000" d="M499.0904,-361.7969C433.3085,-351.1055 346.7248,-337.0332 276.9693,-325.696"/>
<polygon fill="#000000" stroke="#000000" points="277.236,-322.1935 266.804,-324.0438 276.113,-329.1028 277.236,-322.1935"/>
</g>
<!-- [root] provider[&quot;registry.terraform.io/hashicorp/aws&quot;] (close)&#45;&gt;[root] aws_route_table_association.rt&#45;association_dev_main (expand) -->
<g id="edge18" class="edge">
<title>[root] provider[&quot;registry.terraform.io/hashicorp/aws&quot;] (close)&#45;&gt;[root] aws_route_table_association.rt&#45;association_dev_main (expand)</title>
<path fill="none" stroke="#000000" d="M604.3358,-359.8314C606.7146,-352.0463 609.5481,-342.7729 612.1876,-334.1347"/>
<polygon fill="#000000" stroke="#000000" points="615.583,-334.9996 615.158,-324.4133 608.8886,-332.954 615.583,-334.9996"/>
</g>
<!-- [root] root -->
<g id="node13" class="node">
<title>[root] root</title>
<ellipse fill="none" stroke="#000000" cx="387.7843" cy="-450" rx="47.3916" ry="18"/>
<text text-anchor="middle" x="387.7843" y="-446.3" font-family="Times,serif" font-size="14.00" fill="#000000">[root] root</text>
</g>
<!-- [root] root&#45;&gt;[root] meta.count&#45;boundary (EachMode fixup) -->
<g id="edge19" class="edge">
<title>[root] root&#45;&gt;[root] meta.count&#45;boundary (EachMode fixup)</title>
<path fill="none" stroke="#000000" d="M352.4677,-437.9488C321.1288,-427.255 274.6686,-411.4013 237.3966,-398.6828"/>
<polygon fill="#000000" stroke="#000000" points="238.2364,-395.2713 227.6419,-395.3543 235.9758,-401.8963 238.2364,-395.2713"/>
</g>
<!-- [root] root&#45;&gt;[root] provider[&quot;registry.terraform.io/hashicorp/aws&quot;] (close) -->
<g id="edge20" class="edge">
<title>[root] root&#45;&gt;[root] provider[&quot;registry.terraform.io/hashicorp/aws&quot;] (close)</title>
<path fill="none" stroke="#000000" d="M423.101,-437.9488C454.2245,-427.3285 500.2621,-411.619 537.4023,-398.9455"/>
<polygon fill="#000000" stroke="#000000" points="538.795,-402.1685 547.1289,-395.6265 536.5344,-395.5436 538.795,-402.1685"/>
</g>
</g>
</svg>
